<?xml version="1.0" encoding="UTF-8"?><svg id="Layer_2" xmlns="http://www.w3.org/2000/svg" viewBox="0 0 41.42 49.65"><defs><style>.cls-1{fill:#fff;}.cls-2{fill:none;stroke:#fff;stroke-linecap:round;stroke-miterlimit:10;}</style></defs><g id="Layer_1-2"><g><g><path class="cls-2" d="M24.91,8.06v-1.61c0-1.23-1-2.23-2.23-2.23h0c-1.23,0-2.23,1-2.23,2.23v1.61"/><line class="cls-2" x1="22.67" y1="4.22" x2="22.67" y2=".5"/><path class="cls-2" d="M29.33,40.95V19.8c0-3.67-2.98-6.65-6.65-6.65s-6.65,2.98-6.65,6.65v21.15"/><path class="cls-2" d="M27.65,15.4v-2.44c0-2.75-2.23-4.98-4.98-4.98s-4.98,2.23-4.98,4.98v2.44"/><g><line class="cls-2" x1="25.31" y1="27.1" x2="25.31" y2="28.02"/><line class="cls-2" x1="25.31" y1="30.07" x2="25.31" y2="31"/><line class="cls-2" x1="25.31" y1="33.05" x2="25.31" y2="33.97"/><line class="cls-2" x1="22.67" y1="27.1" x2="22.67" y2="28.02"/><line class="cls-2" x1="22.67" y1="30.07" x2="22.67" y2="31"/><line class="cls-2" x1="22.67" y1="33.05" x2="22.67" y2="33.97"/><line class="cls-2" x1="20.04" y1="27.1" x2="20.04" y2="28.02"/><line class="cls-2" x1="20.04" y1="30.07" x2="20.04" y2="31"/><line class="cls-2" x1="20.04" y1="33.05" x2="20.04" y2="33.97"/><g><line class="cls-2" x1="25.31" y1="24.12" x2="25.31" y2="25.04"/><line class="cls-2" x1="22.67" y1="24.12" x2="22.67" y2="25.04"/><line class="cls-2" x1="20.04" y1="24.12" x2="20.04" y2="25.04"/></g></g><line class="cls-2" x1="32.14" y1="20.75" x2="29.33" y2="20.75"/><line class="cls-2" x1="40.92" y1="40.95" x2="40.92" y2="20.75"/><line class="cls-2" x1=".5" y1="20.46" x2=".5" y2="40.95"/><line class="cls-2" x1="13.14" y1="40.95" x2="13.14" y2="20.46"/><polyline class="cls-2" points="11.44 19.11 11.44 15.55 2.2 15.55 2.2 19.11"/><path class="cls-2" d="M4.97,11.77h3.7c.68,0,1.24,.55,1.24,1.24v2.54H3.73v-2.54c0-.68,.55-1.24,1.24-1.24Z"/><line class="cls-2" x1="5.46" y1="11.77" x2="6.82" y2="8.61"/><line class="cls-2" x1="8.18" y1="11.77" x2="6.82" y2="8.61"/><line class="cls-2" x1="6.82" y1="8.61" x2="6.82" y2="5.63"/><path class="cls-2" d="M.5,25.9v-5.68c0-.61,.5-1.11,1.11-1.11h2.52v6.16"/><path class="cls-2" d="M9.51,25.27v-6.16h2.52c.61,0,1.11,.5,1.11,1.11v5.68"/><line class="cls-2" x1="13.14" y1="20.75" x2="16.02" y2="20.75"/><line class="cls-2" x1="3.67" y1="27.78" x2="5.83" y2="27.78"/><line class="cls-2" x1="3.67" y1="30" x2="5.83" y2="30"/><line class="cls-2" x1="3.67" y1="32.22" x2="5.83" y2="32.22"/><line class="cls-2" x1="3.67" y1="34.44" x2="5.83" y2="34.44"/><g><line class="cls-2" x1="34.71" y1="20.98" x2="38.35" y2="20.98"/><line class="cls-2" x1="34.71" y1="23.63" x2="38.35" y2="23.63"/><line class="cls-2" x1="34.71" y1="26.28" x2="38.35" y2="26.28"/><line class="cls-2" x1="34.71" y1="28.94" x2="38.35" y2="28.94"/></g><line class="cls-2" x1="9.97" y1="27.78" x2="7.81" y2="27.78"/><line class="cls-2" x1="9.97" y1="30" x2="7.81" y2="30"/><line class="cls-2" x1="9.97" y1="32.22" x2="7.81" y2="32.22"/><line class="cls-2" x1="9.97" y1="34.44" x2="7.81" y2="34.44"/><path class="cls-2" d="M40.92,20.75c0-2.42-1.96-4.39-4.39-4.39s-4.39,1.96-4.39,4.39"/><line class="cls-2" x1="36.53" y1="16.37" x2="36.53" y2="14.13"/><line class="cls-2" x1="32.14" y1="20.75" x2="32.14" y2="40.95"/></g><g><path class="cls-2" d="M29.33,42.5c0-3.67-2.98-6.65-6.65-6.65s-6.65,2.98-6.65,6.65,2.98,6.65,6.65,6.65,6.65-2.98,6.65-6.65Z"/><path class="cls-1" d="M24.87,40.86v-.2c0-1.04-.73-1.94-1.75-2.15v-.57h-.89v.57c-1.02,.21-1.75,1.1-1.75,2.15,0,.93,.61,1.73,1.6,2.1,.13,.05,.26,.09,.39,.13,.22,.07,.45,.15,.66,.25,.54,.26,.85,.69,.85,1.2,0,.72-.58,1.3-1.3,1.3s-1.29-.57-1.3-1.27v-.19h-.9v.2c.02,1.02,.75,1.9,1.75,2.11v.57h.89v-.57c1.02-.21,1.75-1.1,1.75-2.15,0-.49-.16-.94-.5-1.37-.32-.41-.81-.62-1.19-.76-.1-.04-.21-.07-.32-.11-.35-.11-.7-.23-.98-.44-.31-.23-.5-.61-.5-1,0-.72,.58-1.3,1.3-1.3s1.3,.58,1.3,1.3v.2h.89Z"/></g></g></g></svg>