<?xml version="1.0" encoding="UTF-8"?><svg id="Layer_2" xmlns="http://www.w3.org/2000/svg" viewBox="0 0 52.55 45.38"><defs><style>.cls-1{fill:none;stroke:#fff;stroke-linecap:round;stroke-miterlimit:10;}</style></defs><g id="Layer_1-2"><g><g><g><g><path class="cls-1" d="M24.17,35.89l-.89-3.13c-.8-2.82-2.79-5.16-5.45-6.39l-2.2-1.02c-1.3-.6-2.27-1.74-2.66-3.12l-1.06-3.75,.08-.63c.17-1.26-.42-2.5-1.5-3.17l-.05-.03"/><path class="cls-1" d="M13.35,29.65c-.16,.02-.31,.04-.46,.05-2.53,.22-4.99-.93-6.56-2.93-3.22-4.12-5.66-1.55-5.66-1.55,0,0,2.65,3.18,4.46,6.32,1.29,2.24,3.38,3.94,5.89,4.57,.15,.04,.31,.07,.48,.11,1.64,.34,3.01,1.41,3.78,2.86"/><path class="cls-1" d="M3.07,24.46l-1.09-5.01,3.22-9.87s1.84,.46,1.37,3.28l-1.46,6.42,1,4.06"/><path class="cls-1" d="M6.35,10.62l.86-2.67s2.39,.88,1.58,4.06l-1.34,6.97,1.07,3.77"/><path class="cls-1" d="M8.96,10.61l.12,.09c1.12,.82,1.68,2.22,1.42,3.59l-.77,4.13,1.1,3.84"/></g><polyline class="cls-1" points="23.08 42.45 15.56 44.77 13.54 39.71 24.17 35.89 24.17 38.45"/><line class="cls-1" x1="14.41" y1="41.9" x2="24.17" y2="38.45"/></g><g><g><path class="cls-1" d="M28.38,35.89l.89-3.13c.8-2.82,2.79-5.16,5.45-6.39l2.2-1.02c1.3-.6,2.27-1.74,2.66-3.12l1.06-3.75-.08-.63c-.17-1.26,.42-2.5,1.5-3.17l.05-.03"/><path class="cls-1" d="M39.2,29.65c.16,.02,.31,.04,.46,.05,2.53,.22,4.99-.93,6.56-2.93,3.22-4.12,5.66-1.55,5.66-1.55,0,0-2.65,3.18-4.46,6.32-1.29,2.24-3.38,3.94-5.89,4.57-.15,.04-.31,.07-.48,.11-1.64,.34-3.01,1.41-3.78,2.86"/><path class="cls-1" d="M49.48,24.46l1.1-5.01-3.22-9.87s-1.84,.46-1.37,3.28l1.46,6.42-1,4.06"/><path class="cls-1" d="M46.2,10.62l-.86-2.67s-2.39,.88-1.58,4.06l1.34,6.97-1.07,3.77"/><path class="cls-1" d="M43.59,10.61l-.12,.09c-1.12,.82-1.68,2.22-1.42,3.59l.77,4.13-1.1,3.84"/></g><polyline class="cls-1" points="29.47 42.45 36.99 44.77 39.01 39.71 28.38 35.89 28.38 38.45"/><line class="cls-1" x1="38.14" y1="41.9" x2="28.38" y2="38.45"/></g></g><g><path class="cls-1" d="M35.74,20.73l-.74-3.7c-.16-.81-.61-1.56-1.25-2.09-.41-.34-.83-.55-1.22-.64l-3.16-.92c-.07-.02-.13-.05-.19-.09-.17-.11-.28-.29-.3-.49l-.15-1.25c.88-.69,1.54-1.71,1.85-2.91,.56-.05,1-.68,1-1.47,0-.73-.37-1.32-.87-1.45"/><path class="cls-1" d="M21.81,5.74c-.49,.14-.84,.72-.84,1.44,0,.79,.43,1.42,.99,1.47,.32,1.2,.97,2.22,1.85,2.91l-.14,1.25c-.02,.2-.13,.38-.3,.49-.06,.04-.12,.07-.19,.09l-3.15,.91c-.41,.09-.82,.31-1.23,.65-.65,.53-1.09,1.27-1.25,2.09l-.74,3.7"/><path class="cls-1" d="M30.71,5.73s.26-5.23-4.44-5.23-4.47,5.24-4.47,5.24"/><path class="cls-1" d="M22.14,3.49c.18-.38,.54-.66,.93-.81,.64-.23,1.35-.05,1.97,.24,.89,.41,1.67,.88,2.67,.99,.95,.1,1.82,0,2.68-.44"/><line class="cls-1" x1="23.37" y1="13.29" x2="26.27" y2="16.31"/><line class="cls-1" x1="29.18" y1="13.29" x2="26.27" y2="16.31"/><line class="cls-1" x1="26.27" y1="16.31" x2="26.27" y2="18.29"/></g></g></g></svg>