<?xml version="1.0" encoding="UTF-8"?><svg id="Layer_2" xmlns="http://www.w3.org/2000/svg" viewBox="0 0 40.33 52.72"><defs><style>.cls-1{fill:none;stroke:#fff;stroke-linecap:round;stroke-miterlimit:10;}</style></defs><g id="Layer_1-2"><g><g><path class="cls-1" d="M31.66,44.01l8.08-1.67-1.53-7.64c-.34-1.69-1.25-3.22-2.58-4.32-.85-.7-1.71-1.15-2.53-1.33l-6.53-1.9c-.14-.04-.28-.1-.4-.19-.34-.23-.57-.6-.62-1.01l-.3-2.58c1.83-1.42,3.18-3.54,3.83-6.02,1.17-.1,2.06-1.4,2.06-3.04,0-1.51-.76-2.73-1.8-2.99"/><path class="cls-1" d="M10.93,11.33c-1.01,.29-1.74,1.49-1.74,2.98,0,1.63,.89,2.93,2.05,3.04,.65,2.47,2,4.6,3.83,6.02l-.3,2.58c-.05,.41-.27,.78-.62,1.01-.12,.08-.26,.15-.4,.19l-6.51,1.89c-.84,.19-1.7,.64-2.55,1.34-1.33,1.1-2.25,2.64-2.58,4.32l-1.53,7.64,8.03,1.66"/></g><path class="cls-1" d="M29.35,11.32S29.89,.5,20.16,.5,10.93,11.33,10.93,11.33"/><path class="cls-1" d="M11.62,6.69c.38-.78,1.12-1.37,1.93-1.67,1.32-.48,2.79-.1,4.07,.49,1.84,.84,3.45,1.83,5.52,2.06,1.97,.22,3.77,0,5.54-.9"/><polyline class="cls-1" points="25.49 25.34 20.17 30.11 14.84 25.34"/><g><polyline class="cls-1" points="32.14 39.14 20.14 30.11 8.14 39.14"/><line class="cls-1" x1="10.39" y1="37.45" x2="10.39" y2="52.22"/><line class="cls-1" x1="29.89" y1="37.45" x2="29.89" y2="52.22"/><g><rect class="cls-1" x="16.78" y="40.61" width="6.71" height="6.71"/><line class="cls-1" x1="20.14" y1="43.97" x2="20.14" y2="40.61"/><line class="cls-1" x1="16.78" y1="44.02" x2="23.49" y2="44.02"/></g><line class="cls-1" x1="10.39" y1="52.22" x2="29.89" y2="52.22"/><path class="cls-1" d="M24.73,36.59c-2.17-1.63-4.59-3.45-4.59-3.45l-4.59,3.45"/></g></g></g></svg>