<?xml version="1.0" encoding="UTF-8"?><svg id="Layer_2" xmlns="http://www.w3.org/2000/svg" viewBox="0 0 72.86 74.83"><defs><style>.cls-1{fill:none;stroke:#fff;stroke-linecap:round;stroke-miterlimit:10;stroke-width:2px;}</style></defs><g id="Layer_1-2"><g><g><path class="cls-1" d="M29.3,3.16c-2.31,5.19-7.76,5.4-13.98,9.4-4.86,3.12-8.62,7.84-11.11,13.07C.24,33.99-.07,44.03,3.4,52.62"/><polyline class="cls-1" points="24.98 2.48 30.61 1.2 31.9 6.83"/></g><g><path class="cls-1" d="M4.9,63.22c5.65-.59,8.56,4.02,15.13,7.41,5.14,2.65,11.11,3.55,16.87,3.09,9.23-.74,18.07-5.49,23.78-12.79"/><polyline class="cls-1" points="6.48 67.31 2.54 63.07 6.78 59.14"/></g><g><path class="cls-1" d="M69.12,54.32c-3.33-4.6-.8-9.42-1.15-16.81-.28-5.77-2.48-11.39-5.76-16.16-5.25-7.63-13.79-12.91-22.97-14.2"/><polyline class="cls-1" points="71.86 50.92 70.16 56.44 64.64 54.74"/></g></g><g><polyline class="cls-1" points="59.48 33.13 34.58 14.4 9.68 33.13"/><line class="cls-1" x1="14.35" y1="29.62" x2="14.35" y2="60.26"/><line class="cls-1" x1="54.81" y1="29.62" x2="54.81" y2="60.26"/><g><rect class="cls-1" x="27.62" y="36.18" width="13.92" height="13.92"/><line class="cls-1" x1="34.58" y1="43.14" x2="34.58" y2="36.18"/><line class="cls-1" x1="27.62" y1="43.24" x2="41.54" y2="43.24"/></g><line class="cls-1" x1="14.35" y1="60.26" x2="54.81" y2="60.26"/><path class="cls-1" d="M44.09,27.84c-4.49-3.38-9.51-7.16-9.51-7.16l-9.51,7.16"/></g></g></svg>