<?xml version="1.0" encoding="UTF-8"?><svg id="Layer_2" xmlns="http://www.w3.org/2000/svg" viewBox="0 0 94.82 94.91"><defs><style>.cls-1{fill:none;stroke:#fff;stroke-linecap:round;stroke-miterlimit:10;stroke-width:2px;}</style></defs><g id="Layer_1-2"><g><path class="cls-1" d="M57.05,18.36v-3.69c0-2.83-2.3-5.13-5.13-5.13h0c-2.83,0-5.13,2.3-5.13,5.13v3.69"/><line class="cls-1" x1="51.92" y1="9.55" x2="51.92" y2="1"/><path class="cls-1" d="M67.2,93.91V45.33c0-8.44-6.84-15.28-15.28-15.28s-15.28,6.84-15.28,15.28v48.58"/><path class="cls-1" d="M63.37,35.21v-5.61c0-6.32-5.12-11.44-11.44-11.44s-11.44,5.12-11.44,11.44v5.61"/><g><line class="cls-1" x1="57.97" y1="62.08" x2="57.97" y2="64.2"/><line class="cls-1" x1="57.97" y1="68.92" x2="57.97" y2="71.04"/><line class="cls-1" x1="57.97" y1="75.76" x2="57.97" y2="77.88"/><line class="cls-1" x1="51.92" y1="62.08" x2="51.92" y2="64.2"/><line class="cls-1" x1="51.92" y1="68.92" x2="51.92" y2="71.04"/><line class="cls-1" x1="51.92" y1="75.76" x2="51.92" y2="77.88"/><line class="cls-1" x1="45.87" y1="62.08" x2="45.87" y2="64.2"/><line class="cls-1" x1="45.87" y1="68.92" x2="45.87" y2="71.04"/><line class="cls-1" x1="45.87" y1="75.76" x2="45.87" y2="77.88"/><g><line class="cls-1" x1="57.97" y1="55.24" x2="57.97" y2="57.36"/><line class="cls-1" x1="51.92" y1="55.24" x2="51.92" y2="57.36"/><line class="cls-1" x1="45.87" y1="55.24" x2="45.87" y2="57.36"/></g></g><line class="cls-1" x1="73.67" y1="47.52" x2="67.2" y2="47.52"/><line class="cls-1" x1="93.82" y1="93.91" x2="93.82" y2="47.52"/><line class="cls-1" x1="1" y1="46.84" x2="1" y2="93.91"/><line class="cls-1" x1="30.03" y1="93.91" x2="30.03" y2="46.84"/><polyline class="cls-1" points="26.13 43.74 26.13 35.55 4.9 35.55 4.9 43.74"/><path class="cls-1" d="M11.26,26.87h8.5c1.57,0,2.84,1.27,2.84,2.84v5.84H8.42v-5.84c0-1.57,1.27-2.84,2.84-2.84Z"/><line class="cls-1" x1="12.4" y1="26.87" x2="15.52" y2="19.63"/><line class="cls-1" x1="18.63" y1="26.87" x2="15.52" y2="19.63"/><line class="cls-1" x1="15.52" y1="19.63" x2="15.52" y2="12.79"/><path class="cls-1" d="M1,59.34v-13.05c0-1.41,1.14-2.55,2.55-2.55h5.79v14.16"/><path class="cls-1" d="M21.69,57.9v-14.16h5.79c1.41,0,2.55,1.14,2.55,2.55v13.05"/><line class="cls-1" x1="30.03" y1="47.52" x2="36.64" y2="47.52"/><line class="cls-1" x1="8.29" y1="63.66" x2="13.24" y2="63.66"/><line class="cls-1" x1="8.29" y1="68.75" x2="13.24" y2="68.75"/><line class="cls-1" x1="8.29" y1="73.85" x2="13.24" y2="73.85"/><line class="cls-1" x1="8.29" y1="78.95" x2="13.24" y2="78.95"/><g><line class="cls-1" x1="79.57" y1="48.03" x2="87.92" y2="48.03"/><line class="cls-1" x1="79.57" y1="54.12" x2="87.92" y2="54.12"/><line class="cls-1" x1="79.57" y1="60.22" x2="87.92" y2="60.22"/><line class="cls-1" x1="79.57" y1="66.31" x2="87.92" y2="66.31"/></g><line class="cls-1" x1="22.74" y1="63.66" x2="17.8" y2="63.66"/><line class="cls-1" x1="22.74" y1="68.75" x2="17.8" y2="68.75"/><line class="cls-1" x1="22.74" y1="73.85" x2="17.8" y2="73.85"/><line class="cls-1" x1="22.74" y1="78.95" x2="17.8" y2="78.95"/><path class="cls-1" d="M93.82,47.52c0-5.56-4.51-10.08-10.08-10.08s-10.08,4.51-10.08,10.08"/><line class="cls-1" x1="83.75" y1="37.44" x2="83.75" y2="32.3"/><line class="cls-1" x1="73.67" y1="47.52" x2="73.67" y2="93.91"/></g></g></svg>