<?xml version="1.0" encoding="UTF-8"?><svg id="Layer_2" xmlns="http://www.w3.org/2000/svg" viewBox="0 0 100.18 78.9"><defs><style>.cls-1{fill:none;stroke:#fff;stroke-linecap:round;stroke-miterlimit:10;stroke-width:2px;}</style></defs><g id="Layer_1-2"><g><g><g><path class="cls-1" d="M31.17,43.01c0-.98,1.44-16.38,1.44-16.38l10.38-6.79"/><path class="cls-1" d="M69.02,43.01c0-.98-1.44-16.38-1.44-16.38l-10.38-6.79"/><line class="cls-1" x1="50.09" y1="26.41" x2="42.98" y2="19.84"/><line class="cls-1" x1="57.21" y1="19.84" x2="50.09" y2="26.41"/><line class="cls-1" x1="57.65" y1="32.49" x2="62.31" y2="32.49"/><path class="cls-1" d="M56.76,9.18c0-4.52-2.98-8.18-6.67-8.18s-6.67,3.66-6.67,8.18,2.98,8.18,6.67,8.18,6.67-3.66,6.67-8.18Z"/></g><g><line class="cls-1" x1="67.41" y1="26.78" x2="74.39" y2="23.84"/><line class="cls-1" x1="79.17" y1="27.22" x2="74.39" y2="23.84"/><path class="cls-1" d="M92.58,43.05c0-.66-1.65-16.27-1.65-16.27l-6.97-2.94"/><polyline class="cls-1" points="83.95 23.84 79.17 27.22 79.17 36.9"/><path class="cls-1" d="M84.24,14.24c0-3.44-2.27-6.23-5.07-6.23s-5.07,2.79-5.07,6.23,2.27,6.23,5.07,6.23,5.07-2.79,5.07-6.23Z"/></g><line class="cls-1" x1="32.77" y1="26.78" x2="25.8" y2="23.84"/><line class="cls-1" x1="21.02" y1="27.22" x2="25.8" y2="23.84"/><path class="cls-1" d="M7.6,43.05c0-.66,1.66-16.27,1.66-16.27l6.97-2.94"/><polyline class="cls-1" points="16.24 23.84 21.02 27.22 21.02 36.9"/><path class="cls-1" d="M15.94,14.24c0-3.44,2.27-6.23,5.07-6.23s5.07,2.79,5.07,6.23-2.27,6.23-5.07,6.23-5.07-2.79-5.07-6.23Z"/></g><g><path class="cls-1" d="M90.9,43.01H9.28c-4.58,0-8.28,3.71-8.28,8.28v26.6H14.4c1.97,0,3.58-1.6,3.58-3.58v-.28c0-5.16,4.19-9.35,9.35-9.35h45.53c5.16,0,9.35,4.19,9.35,9.35v.28c0,1.97,1.6,3.58,3.58,3.58h13.4v-26.6c0-4.58-3.71-8.28-8.28-8.28Z"/><line class="cls-1" x1="26.82" y1="57.95" x2="73.37" y2="57.95"/></g><line class="cls-1" x1="50.09" y1="26.41" x2="50.09" y2="32.49"/></g></g></svg>