<?xml version="1.0" encoding="UTF-8"?><svg id="Layer_2" xmlns="http://www.w3.org/2000/svg" viewBox="0 0 139.91 86.36"><defs><style>.cls-1{fill:none;stroke:#fff;stroke-linecap:round;stroke-miterlimit:10;stroke-width:2px;}</style></defs><g id="Layer_1-2"><g><g><path class="cls-1" d="M88.55,85.36v-16.89s-.08-6.22,4-11.54c1.6-2.09,2.94-4.37,3.75-6.87,2.43-7.48,3.85-22.14-12.25-30.74,0,0-18.15-9.38-32.04,3.35-2.56,2.35-4.49,5.34-5.4,8.7-.68,2.53-1.12,5.86-.64,9.89,.06,.46,.14,.92,.22,1.38,.19,1.09,.49,4.13-1.44,7.05l-3.7,5.37s-1.1,2.35,1.65,2.85c0,0,.85,.08,1.5,.35,.41,.18,.54,.71,.25,1.05-.41,.47-.78,1.26,.38,1.89,.35,.19,.47,.62,.27,.96-.37,.64-.58,1.6,1.01,2.07,.34,.1,.56,.43,.49,.78-.38,1.93-1.04,7.62,4.19,7.54l4.32-.42c3.05-.3,5.84,1.77,6.38,4.79,.35,1.97,.6,4.68,.6,8.43"/><g><path class="cls-1" d="M86.43,39.12c1.04-.91,1.49-2.37,1.04-3.77-.45-1.39-1.68-2.31-3.05-2.44,.58-1.25,.4-2.78-.58-3.86-.98-1.09-2.48-1.43-3.78-.98,.02-1.38-.77-2.7-2.1-3.29-1.34-.6-2.84-.3-3.85,.64-.54-1.26-1.8-2.15-3.26-2.15s-2.72,.89-3.26,2.15c-1.01-.94-2.52-1.23-3.85-.64-1.34,.6-2.12,1.92-2.1,3.29-1.3-.44-2.8-.1-3.78,.98-.98,1.09-1.16,2.61-.58,3.86-1.37,.12-2.6,1.04-3.05,2.44-.45,1.39,0,2.86,1.04,3.77-1.2,.67-1.95,2.01-1.8,3.47,.15,1.46,1.17,2.61,2.48,3.02-.82,1.1-.96,2.63-.23,3.9,.73,1.27,2.13,1.91,3.49,1.75-.3,1.34,.19,2.8,1.37,3.66,1.18,.86,2.72,.88,3.9,.18,.27,1.35,1.31,2.48,2.74,2.78,1.43,.3,2.84-.3,3.64-1.43,.79,1.12,2.21,1.73,3.64,1.43,1.43-.3,2.48-1.43,2.74-2.78,1.18,.7,2.72,.68,3.9-.18,1.18-.86,1.68-2.32,1.37-3.66,1.37,.16,2.76-.48,3.49-1.75,.73-1.27,.59-2.8-.23-3.9,1.31-.41,2.33-1.56,2.48-3.02,.15-1.46-.6-2.8-1.8-3.47Z"/><path class="cls-1" d="M60.95,44.85c1.82,0,3.3-1.48,3.3-3.3,0-.52-.12-1-.33-1.44,.64,.14,1.34,.13,2.08-.18,1.08-.45,1.91-1.39,2.15-2.53,.15-.7,.07-1.36-.15-1.95,.07,0,.15,.01,.22,.01,.16,0,.31,0,.46-.02,3.23-.3,4.12-4.56,1.41-6.34-1.26-.82-2.44-2.03-2.52-3.68"/><path class="cls-1" d="M68.23,35.46s-3.07-1.09-4.22-4.34"/><path class="cls-1" d="M80.05,28.07s-2.1,6.91-8.45,4.83"/><path class="cls-1" d="M86.43,39.12s-3.92-.24-4.97,4.04c0,0-4.12-2.21-7.83,.06-.8,.49-1.47,1.16-2.01,1.93-.99,1.42-2.34,4.09-1.22,7.12"/><path class="cls-1" d="M84.5,32.73s-8.18,1.5-7.98,9.51"/><path class="cls-1" d="M59.18,51.26s4.34-5.38,11.02-3.07"/><path class="cls-1" d="M77.21,55.09s-1.98-1.35-1.99-3.98c0-2.35,2.55-3.89,4.55-2.65,.02,.01,.04,.03,.06,.04"/><path class="cls-1" d="M67.39,38.91s4.53,.43,4.95,5.35"/><path class="cls-1" d="M63.92,40.11s-2-.94-3.35-2.62"/></g></g><line class="cls-1" x1="71.7" y1="8.7" x2="71.7" y2="1"/><line class="cls-1" x1="61.16" y1="10.56" x2="58.33" y2="2.78"/><line class="cls-1" x1="51.29" y1="15.31" x2="46.11" y2="9.14"/><line class="cls-1" x1="44.99" y1="21.88" x2="37.65" y2="17.65"/><line class="cls-1" x1="99.6" y1="23.51" x2="105.88" y2="19.89"/><line class="cls-1" x1="92.76" y1="15.99" x2="97.78" y2="10.01"/><line class="cls-1" x1="82.25" y1="11.16" x2="85.06" y2="3.42"/></g><line class="cls-1" x1="105.88" y1="40.11" x2="138.91" y2="40.11"/><line class="cls-1" x1="103.59" y1="47.61" x2="120.26" y2="47.61"/><line class="cls-1" x1="17.79" y1="58.09" x2="34.46" y2="58.09"/><line class="cls-1" x1="126.82" y1="55.09" x2="109.71" y2="55.09"/><line class="cls-1" x1="36.66" y1="44.27" x2="19.56" y2="44.27"/><line class="cls-1" x1="30.11" y1="50.43" x2="1" y2="50.43"/></g></svg>