<?xml version="1.0" encoding="UTF-8"?><svg id="Layer_2" xmlns="http://www.w3.org/2000/svg" viewBox="0 0 39.06 48.06"><defs><style>.cls-1{fill:none;stroke:#fff;stroke-linecap:round;stroke-miterlimit:10;}</style></defs><g id="Layer_1-2"><g><g><path class="cls-1" d="M28.89,47.56v-9.42s-.04-3.47,2.23-6.44c.89-1.16,1.64-2.44,2.09-3.83,1.35-4.17,2.15-12.35-6.83-17.15,0,0-10.13-5.23-17.87,1.87-1.43,1.31-2.5,2.98-3.01,4.85-.38,1.41-.63,3.27-.36,5.52,.03,.26,.08,.51,.12,.77,.11,.61,.27,2.3-.8,3.94l-2.06,3s-.61,1.31,.92,1.59c0,0,.47,.04,.84,.2,.23,.1,.3,.39,.14,.58-.23,.26-.44,.7,.21,1.06,.19,.11,.26,.34,.15,.54-.21,.36-.33,.89,.57,1.16,.19,.06,.31,.24,.28,.43-.21,1.08-.58,4.25,2.34,4.21l2.41-.24c1.7-.17,3.26,.99,3.56,2.67,.2,1.1,.33,2.61,.33,4.7"/><g><path class="cls-1" d="M27.71,21.77c.58-.51,.83-1.32,.58-2.1-.25-.78-.94-1.29-1.7-1.36,.32-.7,.22-1.55-.33-2.15-.55-.61-1.38-.8-2.11-.55,.01-.77-.43-1.5-1.17-1.84-.75-.33-1.59-.17-2.15,.36-.3-.71-1-1.2-1.82-1.2s-1.52,.49-1.82,1.2c-.56-.52-1.4-.69-2.15-.36-.75,.33-1.18,1.07-1.17,1.84-.73-.25-1.56-.06-2.11,.55-.55,.61-.65,1.46-.33,2.15-.76,.07-1.45,.58-1.7,1.36-.25,.78,0,1.6,.58,2.1-.67,.37-1.09,1.12-1,1.93,.09,.81,.65,1.46,1.38,1.68-.46,.61-.54,1.47-.13,2.18,.41,.71,1.19,1.07,1.95,.98-.17,.75,.11,1.56,.77,2.04,.66,.48,1.52,.49,2.18,.1,.15,.75,.73,1.38,1.53,1.55,.8,.17,1.59-.17,2.03-.8,.44,.63,1.23,.97,2.03,.8,.8-.17,1.38-.8,1.53-1.55,.66,.39,1.52,.38,2.18-.1,.66-.48,.94-1.29,.77-2.04,.76,.09,1.54-.27,1.95-.98,.41-.71,.33-1.56-.13-2.18,.73-.23,1.3-.87,1.38-1.68,.09-.81-.33-1.56-1-1.93Z"/><path class="cls-1" d="M13.5,24.96c1.02,0,1.84-.82,1.84-1.84,0-.29-.07-.56-.19-.8,.36,.08,.75,.07,1.16-.1,.6-.25,1.07-.78,1.2-1.41,.08-.39,.04-.76-.08-1.09,.04,0,.08,0,.12,0,.09,0,.17,0,.26-.01,1.8-.17,2.3-2.55,.78-3.54-.7-.46-1.36-1.13-1.41-2.05"/><path class="cls-1" d="M17.56,19.72s-1.72-.61-2.36-2.42"/><path class="cls-1" d="M24.15,15.6s-1.17,3.86-4.71,2.7"/><path class="cls-1" d="M27.71,21.77s-2.19-.13-2.77,2.25c0,0-2.3-1.23-4.37,.03-.45,.27-.82,.65-1.12,1.08-.55,.79-1.3,2.28-.68,3.97"/><path class="cls-1" d="M26.63,18.2s-4.56,.84-4.45,5.31"/><path class="cls-1" d="M12.51,28.54s2.42-3,6.15-1.71"/><path class="cls-1" d="M22.57,30.67s-1.11-.75-1.11-2.22c0-1.31,1.42-2.17,2.54-1.48,.01,0,.02,.01,.03,.02"/><path class="cls-1" d="M17.09,21.65s2.53,.24,2.76,2.99"/><path class="cls-1" d="M15.15,22.32s-1.11-.52-1.87-1.46"/></g></g><line class="cls-1" x1="19.5" y1="4.8" x2="19.5" y2=".5"/><line class="cls-1" x1="13.61" y1="5.83" x2="12.03" y2="1.49"/><line class="cls-1" x1="8.11" y1="8.48" x2="5.22" y2="5.04"/><line class="cls-1" x1="4.59" y1="12.15" x2=".5" y2="9.79"/><line class="cls-1" x1="35.06" y1="13.06" x2="38.56" y2="11.04"/><line class="cls-1" x1="31.24" y1="8.86" x2="34.04" y2="5.52"/><line class="cls-1" x1="25.38" y1="6.17" x2="26.95" y2="1.85"/></g></g></svg>