<?xml version="1.0" encoding="UTF-8"?><svg id="Layer_2" xmlns="http://www.w3.org/2000/svg" viewBox="0 0 44.29 34.88"><defs><style>.cls-1{fill:none;stroke:#fff;stroke-linecap:round;stroke-miterlimit:10;stroke-width:.87px;}</style></defs><g id="Layer_1-2"><g><g><g><path class="cls-1" d="M13.78,19.01c0-.43,.63-7.24,.63-7.24l4.59-3"/><path class="cls-1" d="M30.52,19.01c0-.43-.63-7.24-.63-7.24l-4.59-3"/><line class="cls-1" x1="22.15" y1="11.67" x2="19" y2="8.77"/><line class="cls-1" x1="25.29" y1="8.77" x2="22.15" y2="11.67"/><line class="cls-1" x1="25.49" y1="14.36" x2="27.55" y2="14.36"/><path class="cls-1" d="M25.09,4.05c0-2-1.32-3.62-2.95-3.62s-2.95,1.62-2.95,3.62,1.32,3.62,2.95,3.62,2.95-1.62,2.95-3.62Z"/></g><g><line class="cls-1" x1="29.81" y1="11.84" x2="32.89" y2="10.54"/><line class="cls-1" x1="35" y1="12.03" x2="32.89" y2="10.54"/><path class="cls-1" d="M40.93,19.03c0-.29-.73-7.2-.73-7.2l-3.08-1.3"/><polyline class="cls-1" points="37.12 10.54 35 12.03 35 16.31"/><path class="cls-1" d="M37.25,6.29c0-1.52-1-2.75-2.24-2.75s-2.24,1.23-2.24,2.75,1,2.75,2.24,2.75,2.24-1.23,2.24-2.75Z"/></g><line class="cls-1" x1="14.49" y1="11.84" x2="11.4" y2="10.54"/><line class="cls-1" x1="9.29" y1="12.03" x2="11.4" y2="10.54"/><path class="cls-1" d="M3.35,19.03c0-.29,.74-7.2,.74-7.2l3.08-1.3"/><polyline class="cls-1" points="7.17 10.54 9.29 12.03 9.29 16.31"/><path class="cls-1" d="M7.04,6.29c0-1.52,1-2.75,2.24-2.75s2.24,1.23,2.24,2.75-1,2.75-2.24,2.75-2.24-1.23-2.24-2.75Z"/></g><g><path class="cls-1" d="M37.93,34.44h5.93v-11.76c0-2.02-1.64-3.66-3.66-3.66H4.1c-2.02,0-3.66,1.64-3.66,3.66v11.76H6.36"/><line class="cls-1" x1="11.85" y1="25.62" x2="32.44" y2="25.62"/></g><line class="cls-1" x1="22.15" y1="11.67" x2="22.15" y2="14.36"/></g></g></svg>