<?xml version="1.0" encoding="UTF-8"?><svg id="Layer_2" xmlns="http://www.w3.org/2000/svg" xmlns:xlink="http://www.w3.org/1999/xlink" viewBox="0 0 320.9 245.94"><defs><style>.cls-1,.cls-2{fill:none;}.cls-3{clip-path:url(#clippath);}.cls-4{fill:#99a3a3;}.cls-5{fill:#627575;}.cls-6{clip-path:url(#clippath-1);}.cls-2{stroke:#fff;stroke-miterlimit:10;stroke-width:2px;}</style><clipPath id="clippath"><polygon class="cls-1" points="109.86 152.56 82.43 140.62 95 127.19 94 119 87.04 119 82.74 104.39 96.89 83.38 92.11 76.24 75.27 88.93 0 80.88 9.27 168.96 32.94 210.51 47.82 212.76 45.51 245.94 69.54 245.94 63.32 213 67.59 187.76 73.44 186.04 78.69 197.39 109.5 170.72 110.3 155.93 126.12 159.1 135.45 142.55 124.03 137.04 109.86 152.56"/></clipPath><clipPath id="clippath-1"><polygon class="cls-1" points="306.79 2.64 189.11 19.19 127.89 0 114.39 56.65 97.17 72.6 104.4 83.39 89.54 105.44 91.7 112.77 99.51 112.77 101.54 129.33 93.01 138.44 108.26 145.07 122.56 129.41 144.13 139.82 132.14 161.09 167.5 166.76 172.63 151.88 195.96 152.17 203.25 134.44 241.71 126.51 276.74 138.69 320.9 73.92 306.79 2.64"/></clipPath></defs><g id="Layer_1-2"><g><polygon class="cls-4" points="109.86 152.56 82.43 140.62 95 127.19 94 119 87.04 119 82.74 104.39 96.89 83.38 92.11 76.24 75.27 88.93 0 80.88 9.27 168.96 32.94 210.51 47.82 212.76 45.51 245.94 69.54 245.94 63.32 213 67.59 187.76 73.44 186.04 78.69 197.39 109.5 170.72 110.3 155.93 126.12 159.1 135.45 142.55 124.03 137.04 109.86 152.56"/><polygon class="cls-4" points="306.79 2.64 189.11 19.19 127.89 0 114.39 56.65 97.17 72.6 104.4 83.39 89.54 105.44 91.7 112.77 99.51 112.77 101.54 129.33 93.01 138.44 108.26 145.07 122.56 129.41 144.13 139.82 132.14 161.09 167.5 166.76 172.63 151.88 195.96 152.17 203.25 134.44 241.71 126.51 276.74 138.69 320.9 73.92 306.79 2.64"/><g class="cls-3"><polyline class="cls-2" points="82.92 140.73 79.29 155.93 70.35 162.23 63.75 159.39 54.89 138.44 57.73 132.54 74.21 125.62 68.66 113.62 3.35 118.25"/></g><polygon class="cls-5" points="137.81 218.16 126.34 208.68 129.67 190.89 109.5 170.72 110.3 155.93 126.12 159.1 135.45 142.55 124.03 137.04 109.86 152.56 82.43 140.62 95 127.19 94 119 87.04 119 82.74 104.39 96.89 83.38 74.83 50.49 89.93 12.43 96.63 12.43 81.83 49.74 104.4 83.39 89.54 105.44 91.7 112.77 99.51 112.77 101.54 129.33 93.01 138.44 108.26 145.07 122.56 129.41 144.13 139.82 129.32 166.09 116.13 163.45 115.87 168.28 136.39 188.8 133.14 206.22 147.58 218.16 137.81 218.16"/><g class="cls-6"><g><polyline class="cls-2" points="98.06 114.3 101.23 109.34 163.06 109.34 174.05 114.3 163.47 135.58 172.97 152.37"/><polyline class="cls-2" points="103.35 83.4 152.24 85.99 163.46 59.08 189.72 18.36"/><polyline class="cls-2" points="149.76 85.73 159.18 101.88 144.84 109.34"/></g></g></g></g></svg>