<?xml version="1.0" encoding="UTF-8"?><svg id="Layer_2" xmlns="http://www.w3.org/2000/svg" xmlns:xlink="http://www.w3.org/1999/xlink" viewBox="0 0 108.75 262.61"><defs><style>.cls-1{clip-path:url(#clippath);}.cls-2{fill:#99a3a3;}.cls-3{stroke-width:1.03px;}.cls-3,.cls-4{fill:none;stroke:#fff;stroke-miterlimit:10;}.cls-4{stroke-width:2px;}</style><clipPath id="clippath"><polygon class="cls-3" points="22.81 .56 46.45 12.3 52.05 45.14 81.52 67.61 98.44 60.36 106.9 64.71 91.43 101.68 92.88 121.25 78.14 136.72 98.92 175.62 106.9 181.66 105.2 189.87 80.8 197.12 84.18 225.63 77.42 229.02 66.3 213.8 51.08 219.59 43.83 250.28 29.09 261.88 15.64 244.48 22.09 227.57 15.64 202.58 4.45 188.42 5.9 183.59 17.25 183.83 20.88 167.89 2.27 161.12 .58 148.8 11.94 146.87 14.11 132.82 21.36 121.25 9.76 95.4 10 81.14 7.59 72.69 23.05 55.05 12.9 4.31 22.81 .56"/></clipPath></defs><g id="Layer_1-2"><polygon class="cls-2" points="51.35 237.31 59.87 238.81 65.13 245.33 62.25 249.46 46.71 247.96 44.2 242.07 51.35 237.31"/><g><polygon class="cls-2" points="22.81 .56 46.45 12.3 52.05 45.14 81.52 67.61 98.44 60.36 106.9 64.71 91.43 101.68 92.88 121.25 78.14 136.72 98.92 175.62 106.9 181.66 105.2 189.87 80.8 197.12 84.18 225.63 77.42 229.02 66.3 213.8 51.08 219.59 43.83 250.28 29.09 261.88 15.64 244.48 22.09 227.57 15.64 202.58 4.45 188.42 5.9 183.59 17.25 183.83 20.88 167.89 2.27 161.12 .58 148.8 11.94 146.87 14.11 132.82 21.36 121.25 9.76 95.4 10 81.14 7.59 72.69 23.05 55.05 12.9 4.31 22.81 .56"/><polygon class="cls-2" points="92.84 151.53 95.59 160.27 102.53 161.95 108.75 151.53 104.44 149.62 99.42 152.61 94.51 150.34 92.84 151.53"/><g><g class="cls-1"><polyline class="cls-4" points="82.37 136.66 69.24 134.56 58.35 141.68 55.56 153.41 32.38 149.62 11.72 131.22"/></g><polygon class="cls-3" points="22.81 .56 46.45 12.3 52.05 45.14 81.52 67.61 98.44 60.36 106.9 64.71 91.43 101.68 92.88 121.25 78.14 136.72 98.92 175.62 106.9 181.66 105.2 189.87 80.8 197.12 84.18 225.63 77.42 229.02 66.3 213.8 51.08 219.59 43.83 250.28 29.09 261.88 15.64 244.48 22.09 227.57 15.64 202.58 4.45 188.42 5.9 183.59 17.25 183.83 20.88 167.89 2.27 161.12 .58 148.8 11.94 146.87 14.11 132.82 21.36 121.25 9.76 95.4 10 81.14 7.59 72.69 23.05 55.05 12.9 4.31 22.81 .56"/></g></g></g></svg>