<?xml version="1.0" encoding="UTF-8"?><svg id="Layer_2" xmlns="http://www.w3.org/2000/svg" xmlns:xlink="http://www.w3.org/1999/xlink" viewBox="0 0 123.66 276.02"><defs><style>.cls-1,.cls-2{fill:none;}.cls-3{clip-path:url(#clippath);}.cls-4{fill:#99a3a3;}.cls-2{stroke:#fff;stroke-miterlimit:10;stroke-width:2px;}</style><clipPath id="clippath"><polygon class="cls-1" points="119.51 0 89.3 9.06 85.34 35.12 43.99 46.26 52.68 102.33 31.72 107.43 21.3 98.13 16.97 98.6 2.08 126.87 10.76 151.04 3.96 165.77 17.37 201.64 0 216.55 15.86 265.07 30.96 276.02 45.69 272.73 45.31 224.58 68.72 217.31 64.38 181.44 56.64 174.07 98.36 138.24 108.56 152.15 116.49 148.96 121.96 108.56 113.47 89.68 108.37 47.77 119.51 35.49 123.66 2.83 119.51 0"/></clipPath></defs><g id="Layer_1-2"><g><polygon class="cls-4" points="119.51 0 89.3 9.06 85.34 35.12 43.99 46.26 52.68 102.33 31.72 107.43 21.3 98.13 16.97 98.6 2.08 126.87 10.76 151.04 3.96 165.77 17.37 201.64 0 216.55 15.86 265.07 30.96 276.02 45.69 272.73 45.31 224.58 68.72 217.31 64.38 181.44 56.64 174.07 98.36 138.24 108.56 152.15 116.49 148.96 121.96 108.56 113.47 89.68 108.37 47.77 119.51 35.49 123.66 2.83 119.51 0"/><g class="cls-3"><polyline class="cls-2" points="84.45 33.46 95.84 54.69 92.42 85.36 47.01 76.29"/></g></g></g></svg>